<svg width="20" height="20" viewBox="0 0 20 20" fill="none" xmlns="http://www.w3.org/2000/svg">
<path d="M6.5 10.5124L8.84119 12.851C9.96722 10.8821 11.5256 9.19445 13.3987 7.91536L13.5 7.84619M10 19C7.20435 19 5.80653 19 4.7039 18.5433C3.23373 17.9343 2.06569 16.7663 1.45672 15.2961C1 14.1935 1 12.7956 1 10C1 7.20435 1 5.80653 1.45672 4.7039C2.06569 3.23373 3.23373 2.06569 4.7039 1.45672C5.80653 1 7.20435 1 10 1C12.7956 1 14.1935 1 15.2961 1.45672C16.7663 2.06569 17.9343 3.23373 18.5433 4.7039C19 5.80653 19 7.20435 19 10C19 12.7956 19 14.1935 18.5433 15.2961C17.9343 16.7663 16.7663 17.9343 15.2961 18.5433C14.1935 19 12.7956 19 10 19Z" stroke="black" stroke-width="2" stroke-linecap="round" stroke-linejoin="round"/>
</svg>
