<svg width="20" height="20" viewBox="0 0 20 20" fill="none" xmlns="http://www.w3.org/2000/svg">
<path d="M8.20071 2.11979C8.83175 1.50171 9.14728 1.19267 9.50967 1.07658C9.82854 0.974434 10.1713 0.974434 10.4902 1.07658C10.8526 1.19267 11.1681 1.50171 11.7992 2.11979L12.1026 2.41697C12.3754 2.68421 12.5118 2.81783 12.6701 2.9139C12.8104 2.9991 12.963 3.06229 13.1225 3.10127C13.3023 3.14524 13.4932 3.14722 13.8751 3.15119L14.2998 3.15559C15.1831 3.16476 15.6247 3.16934 15.9631 3.34351C16.2608 3.49675 16.5032 3.73915 16.6564 4.03685C16.8306 4.37519 16.8351 4.81682 16.8443 5.70009L16.8487 6.12478C16.8527 6.50667 16.8547 6.69761 16.8986 6.87745C16.9376 7.03692 17.0008 7.18948 17.086 7.32981C17.1821 7.48806 17.3157 7.62448 17.5829 7.89732L17.8801 8.20074C18.4982 8.83179 18.8072 9.14731 18.9233 9.5097C19.0255 9.82857 19.0255 10.1714 18.9233 10.4902C18.8072 10.8526 18.4982 11.1682 17.8801 11.7992L17.5829 12.1026C17.3157 12.3755 17.1821 12.5119 17.086 12.6701C17.0008 12.8105 16.9376 12.963 16.8986 13.1225C16.8547 13.3023 16.8527 13.4933 16.8487 13.8752L16.8443 14.2999C16.8351 15.1831 16.8306 15.6248 16.6564 15.9631C16.5032 16.2608 16.2608 16.5032 15.9631 16.6564C15.6247 16.8306 15.1831 16.8352 14.2998 16.8443L13.8751 16.8488C13.4932 16.8527 13.3023 16.8547 13.1225 16.8987C12.963 16.9377 12.8104 17.0008 12.6701 17.086C12.5118 17.1821 12.3754 17.3157 12.1026 17.583L11.7992 17.8801C11.1681 18.4982 10.8526 18.8073 10.4902 18.9234C10.1713 19.0255 9.82854 19.0255 9.50967 18.9234C9.14728 18.8073 8.83175 18.4982 8.20071 17.8801L7.89729 17.583C7.62445 17.3157 7.48803 17.1821 7.32978 17.086C7.18945 17.0008 7.03689 16.9377 6.87742 16.8987C6.69758 16.8547 6.50664 16.8527 6.12475 16.8488L5.70006 16.8443C4.81679 16.8352 4.37516 16.8306 4.03682 16.6564C3.73912 16.5032 3.49672 16.2608 3.34348 15.9631C3.16931 15.6248 3.16473 15.1831 3.15556 14.2999L3.15115 13.8752C3.14719 13.4933 3.14521 13.3023 3.10124 13.1225C3.06226 12.963 2.99907 12.8105 2.91387 12.6701C2.81779 12.5119 2.68418 12.3755 2.41694 12.1026L2.11976 11.7992C1.50168 11.1682 1.19264 10.8526 1.07655 10.4902C0.974403 10.1714 0.974403 9.82857 1.07655 9.5097C1.19264 9.14731 1.50168 8.83179 2.11976 8.20074L2.41694 7.89732C2.68418 7.62448 2.81779 7.48806 2.91387 7.32981C2.99907 7.18948 3.06226 7.03692 3.10124 6.87745C3.14521 6.69761 3.14719 6.50667 3.15115 6.12478L3.15556 5.70009C3.16473 4.81682 3.16931 4.37519 3.34348 4.03685C3.49672 3.73915 3.73912 3.49675 4.03682 3.34351C4.37516 3.16934 4.81679 3.16476 5.70006 3.15559L6.12475 3.15119C6.50664 3.14722 6.69758 3.14524 6.87742 3.10127C7.03689 3.06229 7.18945 2.9991 7.32978 2.9139C7.48803 2.81783 7.62445 2.68421 7.89729 2.41697L8.20071 2.11979Z" stroke="black" stroke-width="2" stroke-linecap="round" stroke-linejoin="round"/>
<path d="M8.99096 9.99999C8.99096 9.44771 9.44786 8.99999 10.0001 8.99999C10.5524 8.99999 11.0093 9.44771 11.0093 9.99999C11.0093 10.5523 10.5524 11 10.0001 11C9.44786 11 8.99096 10.5523 8.99096 9.99999Z" stroke="black" stroke-width="2" stroke-linecap="round" stroke-linejoin="round"/>
</svg>
