<svg width="20" height="20" viewBox="0 0 20 20" fill="none" xmlns="http://www.w3.org/2000/svg">
<path d="M4 6H4.01M4 10H4.01M4 14H4.01M7 1.01105C7.57703 1 8.23647 1 9 1H11C13.8003 1 15.2004 1 16.27 1.54497C17.2108 2.02433 17.9757 2.78924 18.455 3.73005C19 4.79961 19 6.19974 19 9V11C19 13.8003 19 15.2004 18.455 16.27C17.9757 17.2108 17.2108 17.9757 16.27 18.455C15.2004 19 13.8003 19 11 19H9C8.23647 19 7.57703 19 7 18.989M7 1.01105C5.46078 1.04052 4.50797 1.14859 3.73005 1.54497C2.78924 2.02433 2.02433 2.78924 1.54497 3.73005C1 4.79961 1 6.19974 1 9V11C1 13.8003 1 15.2004 1.54497 16.27C2.02433 17.2108 2.78924 17.9757 3.73005 18.455C4.50797 18.8514 5.46078 18.9595 7 18.989M7 1.01105V18.989" stroke="#111111" stroke-width="2" stroke-linecap="round" stroke-linejoin="round"/>
</svg>
