<svg width="20" height="20" viewBox="0 0 20 20" fill="none" xmlns="http://www.w3.org/2000/svg">
<path d="M2.35 15.4V16.75M2.35 16.75V18.1M2.35 16.75H3.7M2.35 16.75H1M10.9 1L11.2202 3.51971C11.6243 6.69877 14.0808 9.22813 17.2467 9.72489L19 10L17.2467 10.2751C14.0808 10.7719 11.6243 13.3012 11.2202 16.4803L10.9 19L10.5798 16.4803C10.1757 13.3012 7.71919 10.7719 4.5533 10.2751L2.8 10L4.5533 9.72489C7.71919 9.22813 10.1757 6.69877 10.5798 3.51971L10.9 1ZM3.7 1L3.76713 1.40758C3.95525 2.54964 4.85036 3.44475 5.99242 3.63286L6.4 3.7L5.99242 3.76713C4.85036 3.95525 3.95525 4.85036 3.76713 5.99242L3.7 6.4L3.63286 5.99242C3.44475 4.85036 2.54964 3.95525 1.40758 3.76713L1 3.7L1.40758 3.63286C2.54964 3.44475 3.44475 2.54964 3.63286 1.40758L3.7 1Z" stroke="black" stroke-width="2" stroke-linecap="round" stroke-linejoin="round"/>
</svg>
