<?xml version="1.0" standalone="no"?>
<!DOCTYPE svg PUBLIC "-//W3C//DTD SVG 20010904//EN"
 "http://www.w3.org/TR/2001/REC-SVG-20010904/DTD/svg10.dtd">
<svg version="1.0" xmlns="http://www.w3.org/2000/svg"
 width="512.000000pt" height="512.000000pt" viewBox="0 0 512.000000 512.000000"
 preserveAspectRatio="xMidYMid meet">

<g transform="translate(0.000000,512.000000) scale(0.100000,-0.100000)"
fill="#000000" stroke="none">
<path d="M1542 4901 c-54 -14 -108 -56 -131 -103 l-21 -44 0 -2196 0 -2195 23
-44 c15 -29 40 -54 71 -74 41 -25 58 -29 116 -29 58 0 75 4 116 29 31 20 56
45 71 74 l23 44 0 2197 0 2197 -23 44 c-41 78 -152 123 -245 100z"/>
<path d="M3437 4145 c-50 -17 -85 -50 -108 -100 -18 -38 -19 -101 -19 -1485 0
-1381 1 -1447 19 -1485 69 -154 313 -154 382 0 18 38 19 104 19 1485 0 1381
-1 1447 -19 1485 -43 97 -163 140 -274 100z"/>
<path d="M557 3505 c-50 -17 -85 -50 -108 -100 -18 -38 -19 -83 -19 -845 0
-760 1 -807 19 -845 69 -154 313 -154 382 0 18 38 19 85 19 845 0 760 -1 807
-19 845 -43 97 -163 140 -274 100z"/>
<path d="M2477 3505 c-50 -17 -85 -50 -108 -100 -18 -38 -19 -83 -19 -845 0
-760 1 -807 19 -845 69 -154 313 -154 382 0 18 38 19 85 19 845 0 760 -1 807
-19 845 -43 97 -163 140 -274 100z"/>
<path d="M4385 3393 c-44 -23 -74 -53 -96 -95 -18 -36 -19 -69 -19 -738 0
-669 1 -702 19 -738 39 -75 101 -112 191 -112 90 0 152 37 191 112 18 36 19
69 19 738 0 625 -2 704 -16 733 -23 46 -64 86 -103 103 -45 19 -148 17 -186
-3z"/>
</g>
</svg>
